<svg version="1.1" xmlns="http://www.w3.org/2000/svg" xmlns:xlink="http://www.w3.org/1999/xlink">
	<defs>
		<svg viewBox="0 0 130 168" id="ghost">
			<path fill="#E0E4E8" d="M63.004.034C27.572 1.238 0 36.002 0 76.472v76.272c0 8.116 5.832 14.718 13 14.718s13-6.602 13-14.718c0-2.705 1.944-4.906 4.333-4.906 2.39 0 4.334 2.2 4.334 4.906 0 8.116 5.831 14.718 13 14.718 3.472 0 6.737-1.53 9.192-4.31 2.456-2.78 3.808-6.477 3.807-10.408 0-2.712 1.939-4.906 4.334-4.906 2.39 0 4.333 2.2 4.333 4.906 0 8.116 5.832 14.718 13 14.718 7.169 0 13-6.602 13-14.718 0-2.705 1.944-4.906 4.334-4.906 2.39 0 4.333 2.2 4.333 4.906 0 8.116 5.832 14.718 13 14.718s13-6.602 13-14.718V73.592c0-41.028-29.82-74.82-66.996-73.558z"/>
			<path fill-opacity=".1" d="M111.5 166.08c4.427-2.35 7.5-7.444 7.5-13.336V73.592C119 35.918 93.857 4.346 60.962.412a6.603 6.603 0 0 1 2.042-.378C100.181-1.228 130 32.564 130 73.592v79.152c0 8.116-5.832 14.718-13 14.718-1.965 0-3.829-.496-5.5-1.383z"/>
			<g>
				<ellipse cx="15" cy="14" rx="9" ry="10" transform="translate(52 73)"/>
				<g opacity=".2" transform="translate(34 72)">
					<circle cx="3" cy="3" r="3"/>
					<circle cx="63" cy="3" r="3"/>
				</g>
				<g transform="translate(37 59)">
					<circle cx="4.5" cy="4.5" r="4.5"/>
					<circle cx="56.5" cy="4.5" r="4.5"/>
				</g>
			</g>
		</svg>
		<svg viewBox="0 0 30 30" id="close">
			<path d="M 7.9785156 5.9804688 A 2.0002 2.0002 0 0 0 6.5859375 9.4140625 L 12.171875 15 L 6.5859375 20.585938 A 2.0002 2.0002 0 1 0 9.4140625 23.414062 L 15 17.828125 L 20.585938 23.414062 A 2.0002 2.0002 0 1 0 23.414062 20.585938 L 17.828125 15 L 23.414062 9.4140625 A 2.0002 2.0002 0 0 0 21.960938 5.9804688 A 2.0002 2.0002 0 0 0 20.585938 6.5859375 L 15 12.171875 L 9.4140625 6.5859375 A 2.0002 2.0002 0 0 0 7.9785156 5.9804688 z" />
		</svg>
		<svg viewBox="0 0 30 30" id="search">
			<path d="M 13 3 C 7.4889971 3 3 7.4889971 3 13 C 3 18.511003 7.4889971 23 13 23 C 15.396508 23 17.597385 22.148986 19.322266 20.736328 L 25.292969 26.707031 A 1.0001 1.0001 0 1 0 26.707031 25.292969 L 20.736328 19.322266 C 22.148986 17.597385 23 15.396508 23 13 C 23 7.4889971 18.511003 3 13 3 z M 13 5 C 17.430123 5 21 8.5698774 21 13 C 21 17.430123 17.430123 21 13 21 C 8.5698774 21 5 17.430123 5 13 C 5 8.5698774 8.5698774 5 13 5 z" />
		</svg>

		<svg viewBox="0 0 48 48" id="pause">
			<path style="fill: #8BC34A" d="M38,42H10c-2.2,0-4-1.8-4-4V10c0-2.2,1.8-4,4-4h28c2.2,0,4,1.8,4,4v28C42,40.2,40.2,42,38,42z" />
			<rect style="fill: #FFFFFF" x="26" y="18" width="4" height="12" />
			<rect style="fill: #FFFFFF" x="18" y="18" width="4" height="12" />
		</svg>

		<svg viewBox="0 0 48 48" id="play">
			<path style="fill: #8BC34A" d="M 38 42 L 10 42 C 7.789063 42 6 40.210938 6 38 L 6 10 C 6 7.789063 7.789063 6 10 6 L 38 6 C 40.210938 6 42 7.789063 42 10 L 42 38 C 42 40.210938 40.210938 42 38 42 " />
			<path style="fill: #FFFFFF" d="M 31 24 L 20 16 L 20 32 Z " />
		</svg>
	</defs>
</svg>